<svg width="108" height="116" viewBox="0 0 108 116" fill="none" xmlns="http://www.w3.org/2000/svg">
<path d="M0 87.4623C0 89.9612 1.33205 92.2705 3.49509 93.5217L40.4951 114.924C44.3454 117.151 48.9933 115.248 50.5016 111.486C51.1446 109.882 50.3609 108.153 49.2056 106.868L31.1439 86.7779C28.212 83.5166 28.9666 78.3934 32.7142 76.1159L47.6353 67.0484C49.7245 65.7787 51.2252 63.3387 49.9215 61.2706C49.3353 60.3405 48.5289 59.5464 47.5491 58.9701L10.5492 37.2054C5.88272 34.4604 0 37.825 0 43.2389L0 87.4623Z" fill="white"/>
<path d="M108 87.4623C108 89.9612 106.668 92.2705 104.505 93.5217L67.5049 114.924C62.8382 117.623 57 114.255 57 108.864V65.0036C57 62.5231 58.3128 60.2278 60.4509 58.9701L97.4508 37.2054C102.117 34.4604 108 37.825 108 43.2389V87.4623Z" fill="white"/>
<path d="M51.3705 0.621569C53.0934 -0.0962422 55.0316 -0.0962406 56.7546 0.621572L98.4654 17.9993C103.827 20.2332 104.293 27.6492 99.2516 30.5356L57.5407 54.4183C55.386 55.6521 52.7389 55.6521 50.5842 54.4183L8.87331 30.5356C3.83236 27.6492 4.29744 20.2332 9.65949 17.9993L51.3705 0.621569Z" fill="white"/>
</svg>
